<svg t="1746329710197" class="icon" viewBox="0 0 1024 1024" version="1.1" xmlns="http://www.w3.org/2000/svg" p-id="6766" width="200" height="200"><path d="M0 512c0 282.624 229.376 512 512 512s512-229.376 512-512S794.624 0 512 0 0 229.376 0 512z" fill="#ECEDEF" p-id="6767"></path><path d="M512 716.8c-172.544 0-320 56.32-381.44 136.704C224.256 957.952 360.448 1024 512 1024s287.744-66.048 381.44-170.496C832 773.12 684.544 716.8 512 716.8z" fill="#B5C4FF" p-id="6768"></path><path d="M700.928 359.936c-6.656-56.832-32.768-76.288-32.768-76.288l-10.752-54.272s-2.048-4.608-5.12-9.728V171.52S543.744 192 503.808 192c-76.8 0-139.776 32.256-147.456 73.728-11.776 5.632-34.304 18.432-36.352 29.184-6.656 25.088-10.24 50.176-10.752 76.288 1.024 30.72 43.52 130.56 43.52 130.56-2.56-36.352-2.56-72.704 0-108.544 4.608-29.696 32.768-65.536 32.768-65.536s37.376 32.768 108.544 32.768c48.64-2.048 96.768-12.8 141.312-32.768 17.92 26.112 29.184 55.808 32.768 87.04 2.048 43.52 0 87.04 0 87.04s39.424-84.992 32.768-141.824z" fill="#433D4C" p-id="6769"></path><path d="M586.752 693.76c-3.584-3.584-8.704-3.584-12.8-0.512l-7.68 6.656c-11.264 12.8-31.232 20.992-54.272 20.992s-43.008-8.192-54.272-20.992l-7.68-6.656c-3.584-3.072-9.216-3.072-12.8 0.512l-31.232 31.232L455.68 837.12s14.336 7.68 17.408-0.512c9.216-32.768 15.872-65.536 19.968-99.328h37.376c4.608 33.28 11.264 66.56 19.968 99.328 3.072 7.68 17.408 0.512 17.408 0.512l49.664-112.128-30.72-31.232z" fill="#7993E8" p-id="6770"></path><path d="M700.928 393.216s0-0.512-0.512-0.512c-5.632 51.712-32.256 109.056-32.256 109.056s0-4.096 0.512-11.264c0 0.512 0 0.512-0.512 1.024 0 0 0.512-16.384 1.024-39.424 0-11.776-0.512-24.576-1.024-37.376-3.584-31.232-14.848-60.928-32.768-87.04-44.544 19.968-92.672 30.72-141.312 32.768-71.168 0-108.544-32.768-108.544-32.768s-28.16 35.84-32.768 65.536a787.779 787.779 0 0 0 0 98.304c0-0.512-0.512-1.024-0.512-1.536 0 4.096 0.512 7.68 0.512 11.776 0 0-31.744-73.728-40.96-114.176l-2.56 5.632s-1.024 39.424 1.536 73.216c0 15.872 3.072 31.744 9.216 46.08 7.168 10.752 20.48 15.36 32.768 10.752 0 0 30.208 104.448 108.544 140.288v39.424c11.776 10.752 29.696 17.408 50.688 17.408 18.944 0 35.84-5.632 47.104-14.848v-37.888c83.968-30.72 108.544-144.384 108.544-144.384 8.192-0.512 16.384-4.608 21.504-10.752 8.192-9.728 23.552-87.04 11.776-119.296z" fill="#F4E1E8" p-id="6771"></path></svg>