<svg version="1.1" xmlns="http://www.w3.org/2000/svg" xmlns:xlink="http://www.w3.org/1999/xlink" x="0px" y="0px" width="418.0587579025907" height="480.00000000000006" viewBox="0 0 234.2 268.9" style="enable-background:new 0 0 234.2 268.9;" xml:space="preserve" class="style-removed" preserveAspectRatio="none">
    <g>
        <path d="M68.4,78.7L10.5,94.3C7,95.3,6.2,99.8,9.1,102l53.3,39L68.4,78.7z" fill="#9d9fc6" stroke-width="0"></path>
        <path d="M59.8,130.4l-55,23.9c-3.3,1.4-3.5,6.1-0.3,7.8L63,192.9L59.8,130.4z" fill="#9d9fc6" stroke-width="0"></path>
        <path d="M57.6,177.3l-55,23.9c-3.3,1.4-3.5,6.1-0.3,7.8l58.4,30.8L57.6,177.3z" fill="#9d9fc6" stroke-width="0"></path>
        <path d="M175.6,59c0,0-4.3-20.4,34.4-20.4c25.9,0,32.3,72.9,12.5,92.7c-14.1,14.1-59,8-76,8 c-7,0,39.9,129.6,39.9,129.6H27.6c0,0,32.6-155.6,35.5-202.3c0.3-4.8,4.3-8.6,9.1-8.5L175.6,59z" fill="#5d5a7a" stroke-width="0"></path>
        <ellipse cx="213.7" cy="59.2" rx="3.3" ry="7" fill="#353535" stroke-width="0"></ellipse>
        <ellipse transform="matrix(0.979 -0.2038 0.2038 0.979 -8.1855 40.3489)" cx="191.8" cy="59.9" rx="3.3" ry="7" fill="#353535" stroke-width="0"></ellipse>
        <circle cx="120.2" cy="73.9" r="5.5" fill="#353535" stroke-width="0"></circle>
        <circle cx="92" cy="75.4" r="5.5" fill="#353535" stroke-width="0"></circle>
        <g>
            <path d="M152.2,195.7c-1.3,4.8-6.2,8.6-10.7,10.3c-6.7,2.4-11.9-0.9-14.4-7.3c-0.9-2.2-4.1-3.1-5.4-0.7 c-2.1,3.7-6.2,6.9-10.4,7.7c-3.1,0.6-6.1-0.2-8.6-2c-2-1.4-3.6-3.2-5.1-5.2c-0.7-1-1.2-2.2-2.4-2.6c-3.5-1.4-4.8,3.2-6.3,5.3 c-3.8,5.4-7.3,0.7-10.1-3.5c-0.9-1.4-3.4-2.2-4.6-0.6c-2.5,3.1-4.7,6.4-7.8,9c-1.5,1.2-3.6,2.8-5.6,2.6c-3.4-0.2-5.1-4.7-6.2-7.3 c-1.5-3.5-6.6-0.5-5.1,3c3,7.1,9,12.8,16.9,8.8c5.2-2.6,8.8-7.8,12.1-11.9c-1.5-0.2-3.1-0.4-4.6-0.6c3.3,5,9.1,11.9,15.8,8.1 c2.1-1.2,3.6-3.1,4.8-5c0.4-0.7,1.3-1.7,1.5-2.5c0-0.2,0.5-0.6,0.5-0.8c-1.5-0.1-3-0.1-4.6-0.2c0.5,0.8,1.1,1.6,1.7,2.4 c4.9,6.3,12.2,10.7,20.3,8.5c5.3-1.4,10.5-5.4,13.1-10.2c-1.8-0.2-3.6-0.5-5.4-0.7c3.4,8.7,10.6,14.4,20.2,11.9 c7.1-1.8,14.4-7.6,16.3-14.9C158.9,193.5,153.2,192,152.2,195.7L152.2,195.7z" fill="#aea9bd" stroke-width="0"></path>
        </g>
        <g>
            <path d="M156.7,230c0,4-2.6,8.3-5.8,10.4c-6.7,4.5-14.1-1.8-18.6-6.4c-1.8-1.8-5.1-0.5-5.1,2.1 c0.1,4.7-4.6,8.7-8.8,9.9c-8.2,2.4-14.5-4.9-18.3-11.2c-1.1-1.8-4.1-2-5.1,0c-2.4,4.6-4.5,9.6-8.1,13.4c-1.7,1.8-3.9,3.6-6.4,2.6 c-4.5-1.7-7-8.7-8.6-12.6c-1.1-2.6-4.6-1.3-5.4,0.7c-1.8,4.4-6.1,9.4-11.1,10c-7.1,0.8-7.6-9.5-7.6-14.2c0-3.8-6-3.8-5.9,0 c0.1,8.3,2.4,20.5,13.1,20.2c8.1-0.2,14.5-7.4,17.3-14.4c-1.8,0.2-3.6,0.5-5.4,0.7c3.5,8.2,11,20.8,21.4,13.8 c5.9-4,8.9-11,12-17.1c-1.7,0-3.4,0-5.1,0c5.2,8.7,14,17.1,25,13.9c6.7-1.9,13.2-8.3,13.1-15.6c-1.7,0.7-3.4,1.4-5.1,2.1 c6.4,6.6,16,13,25.2,7.7c5.3-3.1,9.4-9.7,9.4-15.9C162.6,226.2,156.7,226.2,156.7,230L156.7,230z" fill="#aea9bd" stroke-width="0"></path>
        </g>
        <path d="M109.9,30.4C109.5,16.2,105.2,0,83.5,0c-20.3,0-26,16.2-26.4,30.4H109.9z" fill="#d4e8b0" stroke-width="0"></path>
        <path d="M119.3,42.7H58.4c-3.7,0-6.7-3-6.7-6.7v0c0-3.7,3-6.7,6.7-6.7h60.9c3.7,0,6.7,3,6.7,6.7v0 C126.1,39.7,123,42.7,119.3,42.7z" fill="#bdd882" stroke-width="0"></path>
        <circle cx="92" cy="106.3" r="15.6" fill="#d4e8b0" stroke-width="0"></circle>
        <path d="M124.4,105.4c-0.3,0.8-0.5,1.7-0.5,2.4c0,3.3,3.1,7.5,6.9,7.5c3.8,0,6.9-4.2,6.9-7.5c0-0.8-0.2-1.6-0.5-2.4 H124.4z" fill="#FFFFFF" stroke-width="0"></path>
        <path d="M142.1,105.9c-0.2,0.5-0.3,1.1-0.3,1.6c0,2.1,2,4.9,4.6,4.9c2.5,0,4.6-2.8,4.6-4.9c0-0.5-0.1-1-0.3-1.6H142.1 z" fill="#FFFFFF" stroke-width="0"></path>
        <g>
            <path d="M116.7,102.3c0.1-1,0-2-0.2-3c-0.3-1.5-2.2-2.5-3.6-2.1c-1.6,0.5-2.4,2-2.1,3.6c0,0,0,0.1,0,0.2 c-0.1-0.4,0,0,0,0.1c0,0.3,0,0.6,0,0.9c0,0,0-0.1,0-0.1c0,0,0,0.1,0,0.1c0,0,0,0,0,0.1c0,0.3,0,0.2,0,0c0,0.1,0,0.3-0.1,0.3 c-0.1,0.3-0.2,0.6-0.3,0.9c0,0,0,0.1-0.1,0.1c0,0,0,0-0.1,0.2c0,0,0,0.1,0,0.1c0,0,0,0,0,0c0,0,0,0,0,0c-0.1,0.3-0.3,0.6-0.5,0.8 c-0.2,0.3-0.3,0.5-0.5,0.8c0,0.1-0.3,0.4-0.1,0.1c0.3-0.4-0.1,0.2-0.2,0.2c-0.8,1-1.7,1.8-2.6,2.6c-0.2,0.2-0.5,0.4-0.7,0.6 c0,0,0,0,0,0c-0.1,0.1-0.2,0.1-0.3,0.2c-0.2,0.1-0.5,0.2-0.7,0.4c-0.2,0-0.4,0.1-0.6,0.1c-0.7,0.1-1.4,0.8-1.8,1.4 c-0.4,0.6-0.5,1.6-0.3,2.3c0.2,0.7,0.7,1.4,1.4,1.8c0.8,0.4,1.4,0.4,2.3,0.3c1.8-0.2,3.3-1.5,4.6-2.6c1.1-1,2.2-2,3.1-3.2 c0.4-0.5,0.8-1.1,1.1-1.6c0.3,0.1,0.6,0.2,1,0.2c39-0.2,77.9-0.3,116.9-0.5c0.3-1.9,0.6-3.9,0.8-5.9 C194.6,102,155.7,102.1,116.7,102.3z M104.9,109.6C105,109.6,105.1,109.6,104.9,109.6L104.9,109.6z" fill="#353535" stroke-width="0"></path>
            <path d="M110.5,103.6c0,0-0.1,0.1-0.1,0.2c0,0,0,0,0-0.1C110.4,103.7,110.4,103.7,110.5,103.6z" fill="#353535" stroke-width="0"></path>
            <path d="M110.9,102.1C110.9,102.1,110.9,102.1,110.9,102.1C110.9,102.1,110.9,102.1,110.9,102.1 C110.9,102.1,110.9,102.1,110.9,102.1z" fill="#353535" stroke-width="0"></path>
        </g>
    </g>
</svg>